<mxfile host="app.diagrams.net" modified="2023-05-29T12:48:33.825Z" agent="Mozilla/5.0 (Macintosh; Intel Mac OS X 10_15_7) AppleWebKit/537.36 (KHTML, like Gecko) Chrome/113.0.0.0 Safari/537.36" etag="HkTtf0167Lhwm_kTU6F6" version="21.3.5" type="github">
  <diagram name="第 1 页" id="L0WfJLmJLBTK7clsIJ9l">
    <mxGraphModel dx="1122" dy="628" grid="1" gridSize="10" guides="1" tooltips="1" connect="1" arrows="1" fold="1" page="1" pageScale="1" pageWidth="1169" pageHeight="827" math="0" shadow="0">
      <root>
        <mxCell id="0" />
        <mxCell id="1" parent="0" />
        <mxCell id="K5dmSmof9tP2RLjddTa7-13" style="edgeStyle=orthogonalEdgeStyle;rounded=0;orthogonalLoop=1;jettySize=auto;html=1;exitX=0.5;exitY=1;exitDx=0;exitDy=0;entryX=0.75;entryY=0;entryDx=0;entryDy=0;strokeWidth=2;" parent="1" source="K5dmSmof9tP2RLjddTa7-1" target="K5dmSmof9tP2RLjddTa7-3" edge="1">
          <mxGeometry relative="1" as="geometry" />
        </mxCell>
        <mxCell id="K5dmSmof9tP2RLjddTa7-15" value="宜食" style="edgeLabel;html=1;align=center;verticalAlign=middle;resizable=0;points=[];fontSize=13;" parent="K5dmSmof9tP2RLjddTa7-13" vertex="1" connectable="0">
          <mxGeometry x="0.3412" y="1" relative="1" as="geometry">
            <mxPoint x="4" y="8" as="offset" />
          </mxGeometry>
        </mxCell>
        <mxCell id="K5dmSmof9tP2RLjddTa7-14" style="edgeStyle=orthogonalEdgeStyle;rounded=0;orthogonalLoop=1;jettySize=auto;html=1;exitX=0.5;exitY=1;exitDx=0;exitDy=0;entryX=0.25;entryY=0;entryDx=0;entryDy=0;strokeWidth=2;" parent="1" source="K5dmSmof9tP2RLjddTa7-1" target="K5dmSmof9tP2RLjddTa7-3" edge="1">
          <mxGeometry relative="1" as="geometry" />
        </mxCell>
        <mxCell id="K5dmSmof9tP2RLjddTa7-16" value="忌食" style="edgeLabel;html=1;align=center;verticalAlign=middle;resizable=0;points=[];fontSize=13;" parent="K5dmSmof9tP2RLjddTa7-14" vertex="1" connectable="0">
          <mxGeometry x="0.2" relative="1" as="geometry">
            <mxPoint x="-1" y="20" as="offset" />
          </mxGeometry>
        </mxCell>
        <mxCell id="K5dmSmof9tP2RLjddTa7-18" style="edgeStyle=orthogonalEdgeStyle;rounded=0;orthogonalLoop=1;jettySize=auto;html=1;exitX=0.5;exitY=1;exitDx=0;exitDy=0;strokeWidth=2;" parent="1" source="K5dmSmof9tP2RLjddTa7-1" target="K5dmSmof9tP2RLjddTa7-3" edge="1">
          <mxGeometry relative="1" as="geometry" />
        </mxCell>
        <mxCell id="K5dmSmof9tP2RLjddTa7-19" value="推荐食谱" style="edgeLabel;html=1;align=center;verticalAlign=middle;resizable=0;points=[];fontSize=13;" parent="K5dmSmof9tP2RLjddTa7-18" vertex="1" connectable="0">
          <mxGeometry x="-0.5667" relative="1" as="geometry">
            <mxPoint as="offset" />
          </mxGeometry>
        </mxCell>
        <mxCell id="K5dmSmof9tP2RLjddTa7-23" style="edgeStyle=orthogonalEdgeStyle;rounded=0;orthogonalLoop=1;jettySize=auto;html=1;exitX=0;exitY=0.5;exitDx=0;exitDy=0;entryX=1;entryY=0.5;entryDx=0;entryDy=0;strokeWidth=2;" parent="1" source="K5dmSmof9tP2RLjddTa7-1" target="K5dmSmof9tP2RLjddTa7-7" edge="1">
          <mxGeometry relative="1" as="geometry" />
        </mxCell>
        <mxCell id="K5dmSmof9tP2RLjddTa7-24" value="所属科室" style="edgeLabel;html=1;align=center;verticalAlign=middle;resizable=0;points=[];fontSize=13;" parent="K5dmSmof9tP2RLjddTa7-23" vertex="1" connectable="0">
          <mxGeometry x="0.0286" y="-2" relative="1" as="geometry">
            <mxPoint as="offset" />
          </mxGeometry>
        </mxCell>
        <mxCell id="K5dmSmof9tP2RLjddTa7-25" value="&lt;font style=&quot;font-size: 13px;&quot;&gt;所需检查&lt;/font&gt;" style="edgeStyle=orthogonalEdgeStyle;rounded=0;orthogonalLoop=1;jettySize=auto;html=1;exitX=1;exitY=1;exitDx=0;exitDy=0;entryX=0.5;entryY=0;entryDx=0;entryDy=0;strokeWidth=2;" parent="1" source="K5dmSmof9tP2RLjddTa7-1" target="K5dmSmof9tP2RLjddTa7-6" edge="1">
          <mxGeometry relative="1" as="geometry" />
        </mxCell>
        <mxCell id="K5dmSmof9tP2RLjddTa7-34" style="edgeStyle=orthogonalEdgeStyle;rounded=0;orthogonalLoop=1;jettySize=auto;html=1;exitX=1;exitY=0;exitDx=0;exitDy=0;entryX=0.5;entryY=1;entryDx=0;entryDy=0;strokeWidth=2;" parent="1" source="K5dmSmof9tP2RLjddTa7-1" target="K5dmSmof9tP2RLjddTa7-4" edge="1">
          <mxGeometry relative="1" as="geometry" />
        </mxCell>
        <mxCell id="K5dmSmof9tP2RLjddTa7-35" value="常用药物" style="edgeLabel;html=1;align=center;verticalAlign=middle;resizable=0;points=[];fontSize=13;" parent="K5dmSmof9tP2RLjddTa7-34" vertex="1" connectable="0">
          <mxGeometry x="-0.0111" y="-1" relative="1" as="geometry">
            <mxPoint x="24" y="24" as="offset" />
          </mxGeometry>
        </mxCell>
        <mxCell id="K5dmSmof9tP2RLjddTa7-36" style="edgeStyle=orthogonalEdgeStyle;rounded=0;orthogonalLoop=1;jettySize=auto;html=1;exitX=0;exitY=0;exitDx=0;exitDy=0;entryX=0.5;entryY=1;entryDx=0;entryDy=0;strokeWidth=2;" parent="1" source="K5dmSmof9tP2RLjddTa7-1" target="K5dmSmof9tP2RLjddTa7-4" edge="1">
          <mxGeometry relative="1" as="geometry" />
        </mxCell>
        <mxCell id="K5dmSmof9tP2RLjddTa7-37" value="推荐药物" style="edgeLabel;html=1;align=center;verticalAlign=middle;resizable=0;points=[];fontSize=13;" parent="K5dmSmof9tP2RLjddTa7-36" vertex="1" connectable="0">
          <mxGeometry x="-0.6424" y="1" relative="1" as="geometry">
            <mxPoint x="11" y="-10" as="offset" />
          </mxGeometry>
        </mxCell>
        <mxCell id="K5dmSmof9tP2RLjddTa7-38" style="edgeStyle=orthogonalEdgeStyle;rounded=0;orthogonalLoop=1;jettySize=auto;html=1;exitX=1;exitY=0.5;exitDx=0;exitDy=0;entryX=0;entryY=0.5;entryDx=0;entryDy=0;strokeWidth=2;" parent="1" source="K5dmSmof9tP2RLjddTa7-1" target="K5dmSmof9tP2RLjddTa7-2" edge="1">
          <mxGeometry relative="1" as="geometry" />
        </mxCell>
        <mxCell id="K5dmSmof9tP2RLjddTa7-40" value="症状" style="edgeLabel;html=1;align=center;verticalAlign=middle;resizable=0;points=[];fontSize=13;" parent="K5dmSmof9tP2RLjddTa7-38" vertex="1" connectable="0">
          <mxGeometry x="0.0856" y="1" relative="1" as="geometry">
            <mxPoint as="offset" />
          </mxGeometry>
        </mxCell>
        <mxCell id="K5dmSmof9tP2RLjddTa7-39" style="edgeStyle=orthogonalEdgeStyle;rounded=0;orthogonalLoop=1;jettySize=auto;html=1;exitX=1;exitY=0.5;exitDx=0;exitDy=0;strokeWidth=2;" parent="1" source="K5dmSmof9tP2RLjddTa7-1" edge="1">
          <mxGeometry relative="1" as="geometry">
            <mxPoint x="860" y="480" as="targetPoint" />
          </mxGeometry>
        </mxCell>
        <mxCell id="hOrgLXqzv45TKP7g0zQG-1" value="并发症" style="edgeLabel;html=1;align=center;verticalAlign=middle;resizable=0;points=[];fontSize=13;" vertex="1" connectable="0" parent="K5dmSmof9tP2RLjddTa7-39">
          <mxGeometry x="0.7205" relative="1" as="geometry">
            <mxPoint as="offset" />
          </mxGeometry>
        </mxCell>
        <mxCell id="K5dmSmof9tP2RLjddTa7-1" value="&lt;font style=&quot;font-size: 15px;&quot;&gt;疾病&lt;/font&gt;" style="rounded=1;whiteSpace=wrap;html=1;strokeWidth=2;fillStyle=auto;absoluteArcSize=0;perimeterSpacing=0;glass=0;fillColor=#f8cecc;strokeColor=#b85450;" parent="1" vertex="1">
          <mxGeometry x="560" y="560" width="100" height="40" as="geometry" />
        </mxCell>
        <mxCell id="K5dmSmof9tP2RLjddTa7-2" value="&lt;font style=&quot;font-size: 15px;&quot;&gt;症状&lt;/font&gt;" style="rounded=1;whiteSpace=wrap;html=1;strokeWidth=2;fillStyle=auto;absoluteArcSize=0;perimeterSpacing=0;glass=0;fillColor=#ffe6cc;strokeColor=#d79b00;" parent="1" vertex="1">
          <mxGeometry x="810" y="434" width="100" height="40" as="geometry" />
        </mxCell>
        <mxCell id="K5dmSmof9tP2RLjddTa7-3" value="&lt;font style=&quot;font-size: 15px;&quot;&gt;食物&lt;/font&gt;" style="rounded=1;whiteSpace=wrap;html=1;strokeWidth=2;fillStyle=auto;absoluteArcSize=0;perimeterSpacing=0;glass=0;fillColor=#ffe6cc;strokeColor=#d79b00;" parent="1" vertex="1">
          <mxGeometry x="560" y="750" width="100" height="40" as="geometry" />
        </mxCell>
        <mxCell id="K5dmSmof9tP2RLjddTa7-4" value="&lt;span style=&quot;font-size: 15px;&quot;&gt;药品&lt;/span&gt;" style="rounded=1;whiteSpace=wrap;html=1;strokeWidth=2;fillStyle=auto;absoluteArcSize=0;perimeterSpacing=0;glass=0;fillColor=#ffe6cc;strokeColor=#d79b00;" parent="1" vertex="1">
          <mxGeometry x="560" y="394" width="100" height="40" as="geometry" />
        </mxCell>
        <mxCell id="K5dmSmof9tP2RLjddTa7-21" style="edgeStyle=orthogonalEdgeStyle;rounded=0;orthogonalLoop=1;jettySize=auto;html=1;exitX=0.5;exitY=1;exitDx=0;exitDy=0;entryX=0.5;entryY=0;entryDx=0;entryDy=0;strokeWidth=2;" parent="1" source="K5dmSmof9tP2RLjddTa7-5" target="K5dmSmof9tP2RLjddTa7-4" edge="1">
          <mxGeometry relative="1" as="geometry" />
        </mxCell>
        <mxCell id="K5dmSmof9tP2RLjddTa7-22" value="在售药物" style="edgeLabel;html=1;align=center;verticalAlign=middle;resizable=0;points=[];fontSize=13;" parent="K5dmSmof9tP2RLjddTa7-21" vertex="1" connectable="0">
          <mxGeometry x="-0.1333" y="-2" relative="1" as="geometry">
            <mxPoint as="offset" />
          </mxGeometry>
        </mxCell>
        <mxCell id="K5dmSmof9tP2RLjddTa7-5" value="&lt;font style=&quot;font-size: 15px;&quot;&gt;药厂&lt;/font&gt;" style="rounded=1;whiteSpace=wrap;html=1;strokeWidth=2;fillStyle=auto;absoluteArcSize=0;perimeterSpacing=0;glass=0;fillColor=#fff2cc;strokeColor=#d6b656;" parent="1" vertex="1">
          <mxGeometry x="560" y="270" width="100" height="40" as="geometry" />
        </mxCell>
        <mxCell id="K5dmSmof9tP2RLjddTa7-6" value="&lt;font style=&quot;font-size: 15px;&quot;&gt;检查项目&lt;/font&gt;" style="rounded=1;whiteSpace=wrap;html=1;strokeWidth=2;fillStyle=auto;absoluteArcSize=0;perimeterSpacing=0;glass=0;fillColor=#ffe6cc;strokeColor=#d79b00;" parent="1" vertex="1">
          <mxGeometry x="810" y="720" width="100" height="40" as="geometry" />
        </mxCell>
        <mxCell id="K5dmSmof9tP2RLjddTa7-7" value="&lt;span style=&quot;font-size: 15px;&quot;&gt;科室&lt;/span&gt;" style="rounded=1;whiteSpace=wrap;html=1;strokeWidth=2;fillStyle=auto;absoluteArcSize=0;perimeterSpacing=0;glass=0;fillColor=#ffe6cc;strokeColor=#d79b00;" parent="1" vertex="1">
          <mxGeometry x="330" y="560" width="100" height="40" as="geometry" />
        </mxCell>
        <mxCell id="K5dmSmof9tP2RLjddTa7-30" style="edgeStyle=orthogonalEdgeStyle;rounded=0;orthogonalLoop=1;jettySize=auto;html=1;exitX=0.5;exitY=0;exitDx=0;exitDy=0;entryX=0.5;entryY=1;entryDx=0;entryDy=0;strokeWidth=2;" parent="1" source="K5dmSmof9tP2RLjddTa7-7" target="K5dmSmof9tP2RLjddTa7-7" edge="1">
          <mxGeometry relative="1" as="geometry">
            <Array as="points">
              <mxPoint x="380" y="500" />
              <mxPoint x="280" y="500" />
              <mxPoint x="280" y="650" />
              <mxPoint x="380" y="650" />
            </Array>
          </mxGeometry>
        </mxCell>
        <mxCell id="K5dmSmof9tP2RLjddTa7-31" value="所属科室" style="edgeLabel;html=1;align=center;verticalAlign=middle;resizable=0;points=[];fontSize=13;" parent="K5dmSmof9tP2RLjddTa7-30" vertex="1" connectable="0">
          <mxGeometry x="-0.0937" y="1" relative="1" as="geometry">
            <mxPoint y="22" as="offset" />
          </mxGeometry>
        </mxCell>
      </root>
    </mxGraphModel>
  </diagram>
</mxfile>
